
<svg width="259.791538px" height="210.609468px" viewBox="0 0 259.791538 210.609468" version="1.1" xmlns="http://www.w3.org/2000/svg" xmlns:xlink="http://www.w3.org/1999/xlink">
    <defs>
        <linearGradient x1="78.902533%" y1="33.2459345%" x2="24.6929639%" y2="83.1866147%" id="linearGradient-iv-wxl1r-f-1">
            <stop stop-color="#F9CA56" offset="0%"></stop>
            <stop stop-color="#FFB500" offset="100%"></stop>
        </linearGradient>
        <linearGradient x1="50%" y1="0%" x2="50%" y2="98.9372707%" id="linearGradient-iv-wxl1r-f-2">
            <stop stop-color="#F9CA56" offset="0%"></stop>
            <stop stop-color="#FFB500" offset="100%"></stop>
        </linearGradient>
        <linearGradient x1="62.8220285%" y1="1.56032479%" x2="40.6130503%" y2="95.9903831%" id="linearGradient-iv-wxl1r-f-3">
            <stop stop-color="#F9CA56" offset="0%"></stop>
            <stop stop-color="#FFB500" offset="100%"></stop>
        </linearGradient>
        <path d="M240.088424,35.4458528 C241.215421,33.2190146 242.882088,35.552348 245.088424,42.4458528 C245.75509,48.4458528 245.421757,53.1125194 244.088424,56.4458528 C242.088424,61.4458528 190.515045,174.893236 184.088424,186.445853 C182.077702,190.060364 179.713535,195.741085 176.088424,199.445853 C168.127039,207.582176 158.027045,212.255736 160.088424,207.445853 C163.088424,200.445853 238.397928,38.78611 240.088424,35.4458528 Z" id="path-iv-wxl1r-f-4"></path>
        <linearGradient x1="61.3732953%" y1="5.29051234%" x2="39.0302607%" y2="98.6285538%" id="linearGradient-iv-wxl1r-f-5">
            <stop stop-color="#F9CA56" offset="0%"></stop>
            <stop stop-color="#FFB500" offset="100%"></stop>
        </linearGradient>
    </defs>
    <g id="Page-1" stroke="none" stroke-width="1" fill="none" fill-rule="evenodd">
        <polygon id="Path" fill="url(#linearGradient-iv-wxl1r-f-1)" points="0 65.8734208 53.2121661 59.6769531 76.8781014 9.46143939 101.083688 59.6769531 153.834928 65.8734208 114.64608 101.660561 123.652544 155.56729 76.9174642 130.467787 29.7278076 155.56729 37.7679783 101.660561"></polygon>
        <path d="M185.584391,55.022887 C150.58708,89.3048642 132.676031,106.738861 131.851244,107.324877 C131.207568,107.782213 131.157085,108.23987 131.088424,108.445853 C130.421757,110.445853 135.088424,134.445853 145.088424,180.445853 C145.088424,181.112519 144.75509,181.445853 144.088424,181.445853 C143.088424,181.445853 84.0884238,150.445853 79.0884238,149.445853 C75.7550904,148.779186 65.2298336,152.835727 47.5126534,161.615476 C38.5361488,165.538883 33.9701913,169.477064 33.8147809,173.43002 C33.6593704,177.382977 33.6593704,183.336724 33.8147809,191.291261 C35.731484,196.764042 37.4696987,200.401323 39.029425,202.203104 C40.5891513,204.004884 43.4168941,205.700526 47.5126534,207.290029 L133.931327,207.290029 C139.437413,205.393919 143.367372,203.425454 145.721204,201.384632 C148.075035,199.34381 150.77961,195.559994 153.834928,190.033183 C172.103787,151.933216 185.503928,123.13716 194.035351,103.645014 C201.124832,87.4473441 212.822101,67.4080665 223.100203,41.4118279 C224.006274,39.120116 225.136617,35.6522014 225.89249,31.3292898 C226.163662,29.7784327 226.163662,27.1290067 225.89249,23.3810116 C224.966192,16.7214543 223.750209,12.0815969 222.244542,9.46143939 C219.568228,4.80412591 212.64095,3.44585278 212.64095,3.44585278 C214.207976,3.30924129 188.941886,0.342661898 164.464345,0.0161484948 C141.820302,-0.285907335 121.917474,3.7431741 120.68444,4.26087519 C118.266505,5.27606748 116.364314,6.46287147 114.588424,8.48139066 C113.086094,10.1889743 111.824776,12.6391021 110.303724,14.5777527 C105.521944,20.6723553 101.562907,27.5289337 102.088424,30.4458528 C102.900883,34.9554668 105.332968,38.9777524 109.38468,42.5127098 C109.618599,42.7167948 110.186514,43.0278425 111.088424,43.4458528 L111.781558,43.6221516 L185.584391,55.022887 Z" id="Path-2" fill="url(#linearGradient-iv-wxl1r-f-2)"></path>
        <g id="Path-3">
            <use fill="#D8D8D8" xlink:href="#path-iv-wxl1r-f-4"></use>
            <use fill="url(#linearGradient-iv-wxl1r-f-3)" xlink:href="#path-iv-wxl1r-f-4"></use>
        </g>
        <path d="M255.244856,61.8148881 C256.205625,59.9261458 257.626463,61.9052143 259.50737,67.7520938 C260.075705,72.8411272 259.791538,76.7992643 258.654867,79.6265051 C256.949862,83.8673663 212.983413,180.090287 207.504701,189.888896 C206.063997,192.465576 197.088424,208.445853 195.088424,209.445853 C193.088424,210.445853 190.373301,210.436099 190.088424,210.445853 C185.304618,210.609468 185.489128,211.311591 187.044634,207.700513 C189.602142,201.763307 253.803704,64.6480015 255.244856,61.8148881 Z" id="Path-3" fill="url(#linearGradient-iv-wxl1r-f-5)"></path>
    </g>
</svg>