<svg width="24" height="24" viewBox="0 0 24 24" fill="none" xmlns="http://www.w3.org/2000/svg">
<path d="M8.83333 11.3333C9.9384 11.3333 10.9982 10.8943 11.7796 10.1129C12.561 9.33154 13 8.27173 13 7.16667C13 6.0616 12.561 5.00179 11.7796 4.22039C10.9982 3.43899 9.9384 3 8.83333 3C7.72826 3 6.66846 3.43899 5.88705 4.22039C5.10565 5.00179 4.66667 6.0616 4.66667 7.16667C4.66667 8.27173 5.10565 9.33154 5.88705 10.1129C6.66846 10.8943 7.72826 11.3333 8.83333 11.3333ZM8.83333 11.3333C10.5108 11.3333 11.9767 11.9667 13.0192 13.0192C13.6374 13.6457 14.0998 14.4087 14.3692 15.2467M8.83333 11.3333C5.5 11.3333 3 13.8333 3 17.1667V18.3333C3 19.9902 4.34315 21.3333 6 21.3333H11.3333M12.1667 17.8533L13.2655 18.6863C14.5867 19.6877 16.4697 19.4277 17.4701 18.1057L21.3333 13" stroke="#252525" stroke-width="1.75" stroke-linejoin="round"/>
</svg>
