<svg xmlns="http://www.w3.org/2000/svg" version="1.1" xmlns:xlink="http://www.w3.org/1999/xlink" width="512" height="512" x="0" y="0" viewBox="0 0 512 512" style="enable-background:new 0 0 512 512" xml:space="preserve"><g><path fill="#e4f2f9" d="M391 0H166c-24.853 0-45 20.147-45 45v422c0 24.853 20.147 45 45 45h300c24.853 0 45-20.147 45-45V120z" opacity="1" data-original="#e4f2f9"></path><path fill="#bde0f1" d="M391 0h-75v512h150c24.853 0 45-20.147 45-45V120z" opacity="1" data-original="#bde0f1"></path><path fill="#77bee2" d="M391 0v105c0 8.284 6.716 15 15 15h105z" opacity="1" data-original="#77bee2"></path><g fill="#5f5f82"><path d="M426 302H206c-8.284 0-15-6.716-15-15s6.716-15 15-15h220c8.284 0 15 6.716 15 15s-6.716 15-15 15zM426 212H206c-8.284 0-15-6.716-15-15s6.716-15 15-15h220c8.284 0 15 6.716 15 15s-6.716 15-15 15zM426 392H206c-8.284 0-15-6.716-15-15s6.716-15 15-15h220c8.284 0 15 6.716 15 15s-6.716 15-15 15z" fill="#5f5f82" opacity="1" data-original="#5f5f82"></path></g><path fill="#3c3c55" d="M441 287c0-8.284-6.716-15-15-15H316v30h110c8.284 0 15-6.716 15-15zM441 197c0-8.284-6.716-15-15-15H316v30h110c8.284 0 15-6.716 15-15zM426 392c8.284 0 15-6.716 15-15s-6.716-15-15-15H316v30z" opacity="1" data-original="#3c3c55"></path><path fill="#ff7350" d="M136 512C61.561 512 1 451.439 1 377s60.561-135 135-135 135 60.561 135 135-60.561 135-135 135z" opacity="1" data-original="#ff7350"></path><path fill="#ff4b20" d="M136 242v270c74.439 0 135-60.561 135-135s-60.561-135-135-135z" opacity="1" data-original="#ff4b20"></path><path fill="#e4f2f9" d="M136 272c-57.897 0-105 47.103-105 105s47.103 105 105 105 105-47.103 105-105-47.103-105-105-105z" opacity="1" data-original="#e4f2f9"></path><path fill="#bde0f1" d="M136 272v210c57.897 0 105-47.103 105-105s-47.103-105-105-105z" opacity="1" data-original="#bde0f1"></path><path fill="#5f5f82" d="M176 362h-25v-45c0-8.284-6.716-15-15-15s-15 6.716-15 15v60c0 8.284 6.716 15 15 15h40c8.284 0 15-6.716 15-15s-6.716-15-15-15z" opacity="1" data-original="#5f5f82"></path><path fill="#3c3c55" d="M176 362h-25v-45c0-8.284-6.716-15-15-15v90h40c8.284 0 15-6.716 15-15s-6.716-15-15-15z" opacity="1" data-original="#3c3c55"></path></g></svg>