<svg width="29" height="28" viewBox="0 0 29 28" fill="none" xmlns="http://www.w3.org/2000/svg">
<path d="M17.9889 17.2984C16.7534 16.4132 16.0607 15.917 14.8252 15.0319" stroke="#FFCA48" stroke-width="1.5" stroke-linecap="round" stroke-linejoin="round"/>
<path d="M6.63309 18.7588C7.40548 20.2989 8.58216 21.6 10.0372 22.5227C11.4922 23.4455 13.1708 23.9551 14.8932 23.9972C16.6156 24.0392 18.317 23.612 19.8153 22.7614C21.3136 21.9108 22.5524 20.6687 23.399 19.1681C24.2456 17.6675 24.6682 15.9649 24.6215 14.2426C24.5748 12.5203 24.0606 10.8431 23.134 9.39058C22.2073 7.93806 20.9031 6.76488 19.3609 5.99665C17.8187 5.22842 16.0967 4.89404 14.379 5.02933" stroke="#FFCA48" stroke-width="1.5" stroke-linecap="round" stroke-linejoin="round"/>
<path d="M14.8252 15.0319V11.0319" stroke="#FFCA48" stroke-width="1.5" stroke-linecap="round" stroke-linejoin="round"/>
</svg>
