<svg width="24" height="24" viewBox="0 0 24 24" fill="none" xmlns="http://www.w3.org/2000/svg">
<path d="M3 15.0001C3 17.7046 5.3325 20.4796 9.333 20.9356C8.90246 20.4041 8.53968 19.8211 8.253 19.2001C5.823 18.4996 4.5 16.6921 4.5 15.0001V14.2501C4.5 14.0511 4.57902 13.8604 4.71967 13.7197C4.86032 13.5791 5.05109 13.5001 5.25 13.5001H7.8105C7.959 12.9766 8.1555 12.4756 8.4 12.0001H5.25C4.65326 12.0001 4.08097 12.2371 3.65901 12.6591C3.23705 13.081 3 13.6533 3 14.2501V15.0001ZM14.625 6.37505C14.625 6.80255 14.5605 7.21505 14.439 7.60505C13.722 7.71906 13.0234 7.92789 12.3615 8.22605C12.8074 7.77632 13.0756 7.18056 13.1168 6.54862C13.1579 5.91667 12.9693 5.29115 12.5855 4.78736C12.2018 4.28358 11.6489 3.9355 11.0287 3.8073C10.4085 3.6791 9.76293 3.77943 9.21091 4.08978C8.65888 4.40013 8.23766 4.89958 8.0249 5.49605C7.81214 6.09253 7.82219 6.74581 8.05318 7.33546C8.28418 7.92511 8.72056 8.41137 9.28187 8.7046C9.84317 8.99783 10.4916 9.07826 11.1075 8.93105C10.5076 9.33973 9.96398 9.82538 9.4905 10.3756C8.74104 10.1868 8.05967 9.79128 7.52398 9.23417C6.9883 8.67706 6.61984 7.98071 6.46057 7.22442C6.3013 6.46814 6.35763 5.68233 6.62313 4.95649C6.88863 4.23065 7.35264 3.59397 7.96231 3.11895C8.57198 2.64394 9.30279 2.34968 10.0715 2.26971C10.8402 2.18974 11.616 2.32726 12.3104 2.66661C13.0047 3.00596 13.5899 3.5335 13.9991 4.18915C14.4083 4.84479 14.6252 5.60218 14.625 6.37505ZM15.75 11.8126C15.5014 11.8126 15.2629 11.9113 15.0871 12.0871C14.9113 12.263 14.8125 12.5014 14.8125 12.7501C14.8125 12.9987 14.9113 13.2372 15.0871 13.413C15.2629 13.5888 15.5014 13.6876 15.75 13.6876C15.9986 13.6876 16.2371 13.5888 16.4129 13.413C16.5887 13.2372 16.6875 12.9987 16.6875 12.7501C16.6875 12.5014 16.5887 12.263 16.4129 12.0871C16.2371 11.9113 15.9986 11.8126 15.75 11.8126ZM15.75 19.5001C15.9489 19.5001 16.1397 19.421 16.2803 19.2804C16.421 19.1397 16.5 18.949 16.5 18.7501V15.7501C16.5 15.5511 16.421 15.3604 16.2803 15.2197C16.1397 15.0791 15.9489 15.0001 15.75 15.0001C15.5511 15.0001 15.3603 15.0791 15.2197 15.2197C15.079 15.3604 15 15.5511 15 15.7501V18.7501C15 18.949 15.079 19.1397 15.2197 19.2804C15.3603 19.421 15.5511 19.5001 15.75 19.5001ZM15.75 9.00005C14.8636 9.00005 13.9858 9.17465 13.1669 9.51387C12.3479 9.85309 11.6038 10.3503 10.977 10.9771C10.3502 11.6039 9.85303 12.348 9.51381 13.1669C9.17459 13.9859 9 14.8636 9 15.7501C9 16.6365 9.17459 17.5142 9.51381 18.3332C9.85303 19.1521 10.3502 19.8962 10.977 20.523C11.6038 21.1498 12.3479 21.647 13.1669 21.9862C13.9858 22.3255 14.8636 22.5001 15.75 22.5001C17.5402 22.5001 19.2571 21.7889 20.523 20.523C21.7888 19.2572 22.5 17.5403 22.5 15.7501C22.5 13.9598 21.7888 12.243 20.523 10.9771C19.2571 9.71121 17.5402 9.00005 15.75 9.00005ZM15.75 10.5001C17.1424 10.5001 18.4777 11.0532 19.4623 12.0377C20.4469 13.0223 21 14.3577 21 15.7501C21 17.1424 20.4469 18.4778 19.4623 19.4624C18.4777 20.4469 17.1424 21.0001 15.75 21.0001C14.3576 21.0001 13.0223 20.4469 12.0377 19.4624C11.0531 18.4778 10.5 17.1424 10.5 15.7501C10.5 14.3577 11.0531 13.0223 12.0377 12.0377C13.0223 11.0532 14.3576 10.5001 15.75 10.5001Z" fill="#252525"/>
</svg>
