<svg width="46" height="43" viewBox="0 0 46 43" fill="none" xmlns="http://www.w3.org/2000/svg">
<path d="M39.1905 1.00002H14.6936C11.4984 1.00002 8.88403 3.47488 8.88403 6.49958V8.37098H31.0436C34.2388 8.37098 36.8531 10.8458 36.8531 13.8705V27.5814H39.1905C42.3858 27.5814 45 25.1066 45 22.0818V6.49958C45 3.47488 42.3858 1.00002 39.1905 1.00002Z" fill="#6C7ED6"/>
<path d="M35.0715 8.11961H10.5746C10.0016 8.11938 9.43181 8.20016 8.88403 8.35929V8.37102H31.0436C34.2388 8.37102 36.8531 10.8459 36.8531 13.8706V27.5815H39.1905C39.7634 27.5816 40.3332 27.5009 40.881 27.3419V13.6192C40.881 10.5945 38.2667 8.11961 35.0715 8.11961Z" fill="#4F67D2"/>
<path d="M31.3094 8.11958H6.81253C3.61728 8.11958 1.00293 10.5944 1.00293 13.6191V29.2013C1.00293 32.2261 3.61728 34.7009 6.81253 34.7009H21.5152C22.1455 34.7009 22.616 35.2561 22.4719 35.837C22.082 37.4084 21.4853 39.0702 20.6033 40.7737C20.2072 41.5388 21.1083 42.3165 21.8736 41.8682C24.0865 40.5717 27.2349 38.402 29.8863 35.3346C30.2349 34.9314 30.759 34.7009 31.3094 34.7009C34.5046 34.7009 37.1189 32.2261 37.1189 29.2013V13.6191C37.1189 10.5944 34.5046 8.11958 31.3094 8.11958Z" fill="#60B8FE"/>
<path d="M26.2339 35.837C26.378 35.2561 25.9075 34.7009 25.2772 34.7009H21.5149C22.1452 34.7009 22.6157 35.2561 22.4716 35.837C22.0817 37.4084 21.485 39.0702 20.6031 40.7737C20.207 41.5388 21.108 42.3165 21.8733 41.8682C22.8652 41.2867 23.8262 40.6594 24.7529 39.9884C25.4259 38.5596 25.9042 37.1659 26.2339 35.837Z" fill="#23A8FE"/>
<path d="M4.76503 29.2014V13.6192C4.76503 10.5944 7.37929 8.11958 10.5745 8.11958H6.81219C3.61694 8.11958 1.00269 10.5944 1.00269 13.6192V29.2014C1.00269 32.2261 3.61694 34.7009 6.81219 34.7009H10.5745C7.37929 34.7009 4.76503 32.2261 4.76503 29.2014Z" fill="#23A8FE"/>
<path d="M10.9835 21.8577C10.9835 22.8656 10.1203 23.6827 9.05564 23.6827C7.99093 23.6827 7.12781 22.8656 7.12781 21.8577C7.12781 20.8498 7.99093 20.0328 9.05564 20.0328C10.1203 20.0328 10.9835 20.8498 10.9835 21.8577Z" fill="#DFEBFA"/>
<path d="M17.2101 21.8577C17.2101 22.8656 16.347 23.6827 15.2823 23.6827C14.2176 23.6827 13.3545 22.8656 13.3545 21.8577C13.3545 20.8498 14.2176 20.0328 15.2823 20.0328C16.347 20.0328 17.2101 20.8498 17.2101 21.8577Z" fill="#DFEBFA"/>
<path d="M23.4368 21.8577C23.4368 22.8656 22.5737 23.6827 21.509 23.6827C20.4443 23.6827 19.5812 22.8656 19.5812 21.8577C19.5812 20.8498 20.4443 20.0328 21.509 20.0328C22.5737 20.0328 23.4368 20.8498 23.4368 21.8577Z" fill="#DFEBFA"/>
<path d="M29.6634 21.8577C29.6634 22.8656 28.8003 23.6827 27.7356 23.6827C26.6709 23.6827 25.8077 22.8656 25.8077 21.8577C25.8077 20.8498 26.6709 20.0328 27.7356 20.0328C28.8003 20.0328 29.6634 20.8498 29.6634 21.8577Z" fill="#DFEBFA"/>
<path d="M9.05576 21.8577C9.05576 21.1823 9.44359 20.5931 10.0196 20.2775C9.72678 20.1169 9.39423 20.0324 9.05576 20.0327C7.99106 20.0327 7.12793 20.8498 7.12793 21.8577C7.12793 22.8656 7.99106 23.6827 9.05576 23.6827C9.40703 23.6827 9.73608 23.5933 10.0196 23.4379C9.44359 23.1223 9.05576 22.5331 9.05576 21.8577Z" fill="#B1DBFC"/>
<path d="M15.2823 21.8577C15.2823 21.1823 15.6702 20.5931 16.2462 20.2775C15.9533 20.1169 15.6208 20.0324 15.2823 20.0327C14.2176 20.0327 13.3545 20.8498 13.3545 21.8577C13.3545 22.8656 14.2176 23.6827 15.2823 23.6827C15.6336 23.6827 15.9626 23.5933 16.2462 23.4379C15.6702 23.1223 15.2823 22.5331 15.2823 21.8577Z" fill="#B1DBFC"/>
<path d="M21.509 21.8577C21.509 21.1823 21.8968 20.5931 22.4729 20.2775C22.18 20.1169 21.8475 20.0324 21.509 20.0327C20.4443 20.0327 19.5812 20.8498 19.5812 21.8577C19.5812 22.8656 20.4443 23.6827 21.509 23.6827C21.8603 23.6827 22.1893 23.5933 22.4729 23.4379C21.8968 23.1223 21.509 22.5331 21.509 21.8577Z" fill="#B1DBFC"/>
<path d="M27.7357 21.8577C27.7357 21.1823 28.1235 20.5931 28.6996 20.2775C28.4067 20.1169 28.0742 20.0324 27.7357 20.0327C26.671 20.0327 25.8079 20.8498 25.8079 21.8577C25.8079 22.8656 26.671 23.6827 27.7357 23.6827C28.087 23.6827 28.416 23.5933 28.6996 23.4379C28.1235 23.1223 27.7357 22.5331 27.7357 21.8577Z" fill="#B1DBFC"/>
<path d="M10.9809 21.8577C10.9809 22.8656 10.1178 23.6827 9.05307 23.6827C7.98837 23.6827 7.12524 22.8656 7.12524 21.8577C7.12524 20.8498 7.98837 20.0328 9.05307 20.0328C10.1178 20.0328 10.9809 20.8498 10.9809 21.8577Z" stroke="#020202" stroke-width="1.33333" stroke-miterlimit="10" stroke-linecap="round" stroke-linejoin="round"/>
<path d="M17.2075 21.8577C17.2075 22.8656 16.3443 23.6827 15.2796 23.6827C14.2149 23.6827 13.3518 22.8656 13.3518 21.8577C13.3518 20.8498 14.2149 20.0328 15.2796 20.0328C16.3443 20.0328 17.2075 20.8498 17.2075 21.8577Z" stroke="#020202" stroke-width="1.33333" stroke-miterlimit="10" stroke-linecap="round" stroke-linejoin="round"/>
<path d="M23.4341 21.8577C23.4341 22.8656 22.571 23.6827 21.5063 23.6827C20.4416 23.6827 19.5785 22.8656 19.5785 21.8577C19.5785 20.8498 20.4416 20.0328 21.5063 20.0328C22.571 20.0328 23.4341 20.8498 23.4341 21.8577Z" stroke="#020202" stroke-width="1.33333" stroke-miterlimit="10" stroke-linecap="round" stroke-linejoin="round"/>
<path d="M29.6608 21.8577C29.6608 22.8656 28.7977 23.6827 27.733 23.6827C26.6683 23.6827 25.8052 22.8656 25.8052 21.8577C25.8052 20.8498 26.6683 20.0328 27.733 20.0328C28.7977 20.0328 29.6608 20.8498 29.6608 21.8577Z" stroke="#020202" stroke-width="1.33333" stroke-miterlimit="10" stroke-linecap="round" stroke-linejoin="round"/>
<path d="M37.116 27.5815H39.1877C42.3831 27.5815 44.9973 25.1066 44.9973 22.0819V15.7573" stroke="#020202" stroke-width="1.33333" stroke-miterlimit="10" stroke-linecap="round" stroke-linejoin="round"/>
<path d="M44.9973 12.8242V6.4997C44.9973 3.47492 42.3831 1.00005 39.1878 1.00005H14.6909C11.4957 1.00005 8.88135 3.47492 8.88135 6.4997V8.11953" stroke="#020202" stroke-width="1.33333" stroke-miterlimit="10" stroke-linecap="round" stroke-linejoin="round"/>
<path d="M16.8289 34.7009H21.5121C22.1425 34.7009 22.6131 35.2561 22.4688 35.837C22.079 37.4084 21.4823 39.0702 20.6004 40.7737C20.2043 41.5388 21.1054 42.3165 21.8707 41.8682C24.0836 40.5717 27.2319 38.402 29.8833 35.3346C30.2319 34.9314 30.756 34.7009 31.3065 34.7009C34.5016 34.7009 37.116 32.2261 37.116 29.2014V13.6191C37.116 10.5944 34.5016 8.11958 31.3065 8.11958H6.80951C3.61426 8.11958 1 10.5944 1 13.6191V29.2014C1 32.2261 3.61426 34.7009 6.80951 34.7009H13.7305" stroke="#020202" stroke-width="1.33333" stroke-miterlimit="10" stroke-linecap="round" stroke-linejoin="round"/>
</svg>
