<svg width="35" height="34" viewBox="0 0 35 34" fill="none" xmlns="http://www.w3.org/2000/svg">
<g clip-path="url(#clip0_243_1877)">
<path d="M3.68433 25.6918H32.0656C33.3889 23.3382 34.1446 20.6227 34.1446 17.7304C34.1446 8.74486 26.8604 1.46069 17.875 1.46069C8.88945 1.46069 1.60529 8.74486 1.60529 17.7304C1.60535 20.6227 2.36106 23.3382 3.68433 25.6918Z" fill="#D9D9D9"/>
<path d="M11.8061 10.4574H23.9765C23.998 9.58049 24.1443 7.25946 25.0607 5.60607C25.1238 5.49254 25.162 5.36684 25.1726 5.23739C25.1832 5.10793 25.166 4.97771 25.1222 4.85542C24.7897 3.92825 23.7964 1.76075 21.6301 1.18262C21.5146 1.15181 21.4842 1.00253 21.5781 0.92875L21.9027 0.673683C22.0499 0.558004 21.9934 0.323058 21.8096 0.287664C20.2113 -0.020594 14.903 -0.758235 13.2542 2.63227C13.1558 2.83461 12.9703 2.9803 12.7525 3.03668C12.2727 3.16086 11.4097 3.53513 10.8473 4.65666C10.7926 4.76519 10.7601 4.88349 10.7515 5.0047C10.7429 5.12592 10.7585 5.24762 10.7973 5.36276C11.0707 6.16834 11.7367 8.33145 11.8061 10.4574Z" fill="#56415E"/>
<path d="M17.2518 5.09798C15.3079 2.13567 18.7081 0.0010376 18.7081 0.0010376C16.646 0.0277329 14.2639 0.555795 13.2542 2.63212C13.1558 2.83446 12.9703 2.98015 12.7525 3.03653C12.2727 3.16071 11.4097 3.53498 10.8473 4.65651C10.7926 4.76504 10.7601 4.88334 10.7515 5.00455C10.7429 5.12577 10.7585 5.24747 10.7973 5.36261C11.0707 6.16819 11.7367 8.3313 11.8061 10.4572H14.639C16.432 9.00486 18.4068 6.85828 17.2518 5.09798Z" fill="#45304C"/>
<path d="M17.8577 25.4205C18.9271 25.4206 19.9721 25.1001 20.8576 24.5003C21.5226 23.5536 22.0212 22.3919 21.9433 21.0799C21.8687 19.8242 21.3059 19.0387 21.2851 19.0102C21.1677 18.8295 21.0663 18.606 20.9828 18.3454H20.7785C20.615 18.4995 20.4442 18.6459 20.2669 18.7839C19.5794 19.3178 18.7312 19.6077 17.8575 19.6077C16.9839 19.6077 16.1356 19.3178 15.4482 18.7839C15.2709 18.6459 15.1002 18.4995 14.9367 18.3454H14.7602C14.7649 18.3499 14.7692 18.3548 14.7739 18.3593C14.6894 18.6282 14.586 18.8579 14.4661 19.0428C14.4249 19.1 13.8798 19.88 13.8065 21.1145C13.7292 22.4168 14.2197 23.5709 14.8774 24.5137C15.7588 25.105 16.7963 25.4206 17.8577 25.4205Z" fill="#FFD9A1"/>
<path d="M17.8577 19.6077C16.984 19.6077 16.1357 19.3178 15.4484 18.7839C15.2711 18.6459 15.1003 18.4995 14.9368 18.3454H14.7603C14.765 18.3499 14.7694 18.3548 14.774 18.3593C14.6895 18.6282 14.5861 18.8579 14.4662 19.0429C14.425 19.1 13.8799 19.88 13.8066 21.1145C13.7293 22.4168 14.2199 23.571 14.8775 24.5137C18.03 23.3694 17.8577 19.6077 17.8577 19.6077Z" fill="#F9C98A"/>
<path d="M14.7117 24.2653C15.1442 24.9417 15.6728 25.52 16.1657 25.9788C16.222 26.0314 16.2669 26.0949 16.2976 26.1656C16.3284 26.2362 16.3443 26.3124 16.3443 26.3894V33.9278C16.8484 33.9749 17.3587 34 17.875 34C18.3913 34 18.9016 33.9749 19.4057 33.9278V26.4092C19.4113 26.3818 19.3743 26.1396 19.5842 25.9441C20.0729 25.4893 20.5966 24.9168 21.027 24.2479C20.1085 24.9236 18.998 25.2879 17.8577 25.2876C16.7273 25.288 15.6259 24.9301 14.7117 24.2653Z" fill="#FFC839"/>
<path d="M16.1656 25.9789C16.2219 26.0314 16.2668 26.095 16.2976 26.1656C16.3283 26.2363 16.3442 26.3124 16.3443 26.3895V26.7619C16.8356 26.907 17.3453 26.9808 17.8576 26.981C18.3821 26.9807 18.9036 26.9033 19.4056 26.7513V26.4092C19.4112 26.3818 19.3742 26.1396 19.5842 25.9441C20.0729 25.4893 20.5965 24.9168 21.027 24.2479C20.1085 24.9236 18.9979 25.288 17.8576 25.2877C16.7272 25.288 15.6258 24.9301 14.7116 24.2653C15.1442 24.9417 15.6728 25.5201 16.1656 25.9789Z" fill="#FFDD40"/>
<path d="M32.0656 25.6918C31.942 25.326 31.8084 24.9901 31.6635 24.6945C30.6595 22.6465 27.0371 22.5695 25.864 21.3963C25.864 21.3963 25.5339 26.0257 19.306 26.3894V33.9366C24.7927 33.4584 29.4986 30.2574 32.0656 25.6918ZM11.3835 24.4129C11.3342 24.6478 11.3249 24.9106 11.3569 25.201C10.8069 25.2789 8.23859 25.7725 8.23859 28.1812V30.8386C10.5752 32.5592 13.3884 33.6703 16.4439 33.9366V26.3894C13.8985 26.2408 12.3386 25.3795 11.3835 24.4129Z" fill="#945230"/>
<path d="M9.88601 21.3964C8.71281 22.5695 5.09048 22.6465 4.08648 24.6945C3.94158 24.9901 3.80797 25.326 3.68433 25.6918C4.84205 27.7509 6.43494 29.5323 8.33821 30.9116V28.1812C8.33821 25.5577 11.4681 25.2876 11.4681 25.2876C11.4258 24.9837 11.4295 24.7223 11.4686 24.4969C10.0067 23.0804 9.88601 21.3964 9.88601 21.3964Z" fill="#753616"/>
<path d="M24.4489 10.1027C24.1764 9.85304 23.5673 9.97961 23.3326 10.1325C23.384 10.4526 23.3869 10.7801 23.3425 11.1035L23.0656 13.1204C23.0656 13.283 23.0605 13.4425 23.051 13.5992C23.7263 13.8029 24.1281 13.1967 24.1846 12.7806C24.2089 12.6015 24.2488 12.4249 24.3039 12.2528C24.4835 11.6919 25.1315 10.7283 24.4489 10.1027Z" fill="#FFD9A1"/>
<path d="M11.2665 10.1027C11.5389 9.85304 12.1481 9.97961 12.3828 10.1325C12.3316 10.4539 12.3283 10.7811 12.3729 11.1035L12.6498 13.1204C12.6498 13.283 12.6549 13.4425 12.6643 13.5992C11.989 13.8029 11.5872 13.1967 11.5307 12.7806C11.5064 12.6015 11.4665 12.4249 11.4114 12.2528C11.2317 11.6919 10.5838 10.7283 11.2665 10.1027Z" fill="#F9C98A"/>
<path d="M25.5045 19.5682C24.6433 18.651 23.0619 17.9136 21.8407 17.1906C21.8407 17.1906 21.8217 17.2015 21.7818 17.2232C21.5096 17.6087 21.202 17.9681 20.8631 18.2965C20.9353 18.5386 21.0439 18.8219 21.2016 19.0646C21.2016 19.0646 23.4761 22.1858 19.5164 25.8713C19.45 25.9331 19.397 26.008 19.3608 26.0912C19.3246 26.1743 19.3059 26.2641 19.3059 26.3548C19.3059 26.7903 19.7194 27.1083 20.1396 26.9942C21.3179 26.6746 23.5099 25.9489 25.156 24.6377C26.7309 23.3832 26.8827 21.0359 25.5045 19.5682ZM14.2225 23.0939C13.9178 23.0467 12.5692 22.8866 11.8233 23.5987C11.437 23.9674 11.2803 24.5062 11.357 25.2011L11.337 25.2041C12.8524 26.1843 14.6022 26.7554 15.6103 27.0288C16.0306 27.1429 16.444 26.8249 16.444 26.3894C16.444 26.2987 16.4253 26.2089 16.3891 26.1258C16.3529 26.0426 16.3 25.9677 16.2336 25.9059C15.1642 24.9106 14.55 23.9566 14.2225 23.0939Z" fill="#B26847"/>
<path d="M14.5484 19.0993C14.7063 18.8562 14.815 18.5723 14.8872 18.3301C14.5419 17.9999 14.2285 17.6378 13.9512 17.2486C13.9233 17.2334 13.9093 17.2254 13.9093 17.2254C12.6882 17.9484 11.1067 18.6857 10.2455 19.6029C8.86735 21.0707 9.01915 23.4179 10.594 24.6723C10.8722 24.894 11.1663 25.0985 11.4682 25.2875C11.0953 22.6096 14.2646 23.2019 14.2646 23.2019L14.2648 23.2016C13.2998 20.8138 14.5484 19.0993 14.5484 19.0993Z" fill="#945230"/>
<path d="M13.6794 31.0746C13.3677 31.0746 13.1128 30.8197 13.1128 30.5081V25.8541C13.1128 25.5425 13.3677 25.2875 13.6794 25.2875C13.991 25.2875 14.2459 25.5425 14.2459 25.8541V30.5081C14.2459 30.8197 13.9909 31.0746 13.6794 31.0746ZM22.1053 31.0746C21.7937 31.0746 21.5388 30.8197 21.5388 30.5081V25.8541C21.5388 25.5425 21.7937 25.2875 22.1053 25.2875C22.417 25.2875 22.6719 25.5425 22.6719 25.8541V30.5081C22.6719 30.8197 22.4169 31.0746 22.1053 31.0746Z" fill="#DEEEFF"/>
<path d="M23.2323 9.50939C23.17 9.34677 23.0914 9.18208 22.9924 9.02675C22.8247 8.76372 22.751 8.45247 22.7735 8.14222C22.8381 7.24986 22.8035 5.5045 21.6319 4.97737C20.6367 4.52952 19.4158 4.78884 18.6373 5.04776C18.1503 5.20936 17.625 5.21547 17.1344 5.06522C16.2473 5.74602 16.2265 7.27888 16.2864 8.09507C16.3099 8.4075 16.2319 8.71916 16.064 8.98366C15.9668 9.13613 15.8891 9.29749 15.8269 9.4572C15.6252 9.9753 15.5664 10.5372 15.642 11.0875L15.9226 13.1315C15.9226 16.0701 17.4913 18.0675 18.8256 19.1037C19.0225 19.2566 19.2333 19.3882 19.4532 19.5005C19.7431 19.3721 20.0164 19.209 20.2669 19.0147C21.5838 17.9921 23.1319 16.0207 23.1319 13.1205L23.4088 11.1036C23.4828 10.5659 23.4268 10.0167 23.2323 9.50939Z" fill="#FCE6CA"/>
<path d="M18.8351 19.0146C17.5182 17.992 15.9701 16.0206 15.9701 13.1204L15.6931 11.1031C15.6185 10.5601 15.6766 10.0055 15.8756 9.49416C15.937 9.33652 16.0137 9.17727 16.1097 9.0268C16.2754 8.76575 16.3524 8.45818 16.3293 8.14984C16.2682 7.3187 16.2919 5.73471 17.2519 5.09814C17.1934 5.08345 17.1354 5.06662 17.0781 5.04767C16.2996 4.78875 15.0787 4.5295 14.0835 4.97728C12.9086 5.50587 12.8771 7.25973 12.9425 8.14977C12.9658 8.45812 12.8888 8.76572 12.7229 9.02673C12.627 9.17721 12.5503 9.33645 12.4889 9.4941C12.2899 10.0054 12.2319 10.5601 12.3064 11.1031L12.5834 13.1203C12.5834 16.0206 14.1315 17.9918 15.4484 19.0145C16.1358 19.5483 16.984 19.8382 17.8577 19.8382C18.4436 19.8381 19.0221 19.7072 19.551 19.4552C19.2972 19.3346 19.0571 19.1869 18.8351 19.0146Z" fill="#FFD9A1"/>
<path d="M34.1447 17.7304C34.1447 12.8632 32.0068 8.49603 28.6197 5.51453C27.1349 6.68082 25.6647 8.41522 26.4254 10.5209C27.7747 14.2558 21.6673 16.6111 28.4849 19.3183C31.0092 20.3206 32.5537 21.363 33.4992 22.2788C33.919 20.8353 34.1447 19.3093 34.1447 17.7304ZM1.60535 17.7304C1.60535 12.8632 3.74323 8.49603 7.13028 5.51453C8.61506 6.68082 10.0852 8.41522 9.32454 10.5209C7.97523 14.2558 14.0827 16.6111 7.26502 19.3183C4.74072 20.3206 3.19624 21.363 2.25082 22.2788C1.83106 20.8353 1.60535 19.3093 1.60535 17.7304Z" fill="#D9D9D9"/>
<path d="M29.9349 28.6489C29.613 27.3181 28.7921 26.5495 28.1282 26.1298C27.7131 25.8673 27.1718 26.1627 27.1718 26.6538V31.0823C28.1815 30.3777 29.1084 29.5614 29.9349 28.6489Z" fill="#753616"/>
</g>
<defs>
<clipPath id="clip0_243_1877">
<rect width="34" height="34" fill="white" transform="translate(0.875)"/>
</clipPath>
</defs>
</svg>
