<svg width="24" height="24" viewBox="0 0 24 24" fill="none" xmlns="http://www.w3.org/2000/svg">
<g clip-path="url(#clip0_244_853)">
<path d="M5.52378 3.80951H20.3809C20.4819 3.80955 20.5788 3.84969 20.6502 3.92113C20.7217 3.99256 20.7618 4.08944 20.7619 4.19046V23.619C20.7618 23.72 20.7217 23.8169 20.6502 23.8884C20.5788 23.9598 20.4819 23.9999 20.3809 24H5.52378C5.42275 23.9999 5.32588 23.9598 5.25444 23.8884C5.18301 23.8169 5.14286 23.72 5.14282 23.619V4.19046C5.14282 4.08943 5.18296 3.99253 5.2544 3.92109C5.32584 3.84965 5.42274 3.80951 5.52378 3.80951Z" fill="#CCF49F"/>
<path d="M5.52378 3.80951C5.47375 3.8095 5.42421 3.81935 5.37798 3.8385C5.33176 3.85764 5.28976 3.8857 5.25439 3.92107C5.21901 3.95645 5.19095 3.99845 5.17181 4.04467C5.15267 4.09089 5.14282 4.14043 5.14282 4.19046V23.2381H15.4939C15.9009 23.2381 16.2836 23.0796 16.5714 22.7918L19.5536 19.8096C19.8414 19.5218 19.9999 19.1391 19.9999 18.7321V3.80951H5.52378Z" fill="#B3E59F"/>
<path d="M18.8571 2.28571H3.99997C3.89895 2.28574 3.80207 2.32589 3.73064 2.39733C3.6592 2.46876 3.61906 2.56564 3.61902 2.66666V22.0952C3.61906 22.1962 3.6592 22.2931 3.73064 22.3646C3.80207 22.436 3.89895 22.4761 3.99997 22.4762H15.494C15.696 22.4762 15.8898 22.3959 16.0327 22.253L19.0149 19.2709C19.1578 19.128 19.2381 18.9342 19.2381 18.7321V2.66666C19.2381 2.56562 19.198 2.46873 19.1265 2.39728C19.0551 2.32584 18.9582 2.28571 18.8571 2.28571Z" fill="#ECEAEC"/>
<path d="M3.61902 2.28571V22.0952C3.61906 22.1962 3.6592 22.2931 3.73064 22.3646C3.80207 22.436 3.89895 22.4761 3.99997 22.4762H4.38092V14.8571C4.38092 14.0155 5.06314 13.3333 5.90474 13.3333H13.5238C14.155 13.3333 14.6667 12.8216 14.6667 12.1904V2.28571H3.61902Z" fill="#DAD8DB"/>
<path d="M13.5238 12.5714H3.61905C3.51803 12.5714 3.42115 12.5312 3.34972 12.4598C3.27828 12.3884 3.23814 12.2915 3.2381 12.1905V2.28574C3.23814 2.18471 3.27828 2.08784 3.34972 2.0164C3.42115 1.94497 3.51803 1.90482 3.61905 1.90479H13.5238C13.6249 1.90482 13.7217 1.94497 13.7932 2.0164C13.8646 2.08784 13.9047 2.18471 13.9048 2.28574V12.1905C13.9048 12.2915 13.8646 12.3884 13.7932 12.4599C13.7217 12.5313 13.6249 12.5714 13.5238 12.5714Z" fill="#FFE07D"/>
<path d="M7.80954 11.8096C5.7056 11.8096 4 10.104 4 8.00004V1.90479H3.61905C3.51803 1.90482 3.42115 1.94497 3.34972 2.0164C3.27828 2.08784 3.23814 2.18471 3.2381 2.28574V12.1905C3.23814 12.2915 3.27828 12.3884 3.34972 12.4599C3.42115 12.5313 3.51803 12.5714 3.61905 12.5715H13.5238C13.6249 12.5714 13.7217 12.5313 13.7932 12.4599C13.8646 12.3884 13.9047 12.2915 13.9048 12.1905V11.8096H7.80954Z" fill="#FFD064"/>
<path d="M11.619 5.7143H9.71426C9.5037 5.7143 9.33331 5.54391 9.33331 5.33335C9.33331 5.12278 9.5037 4.95239 9.71426 4.95239H11.619C11.8296 4.95239 12 5.12278 12 5.33335C12 5.54391 11.8296 5.7143 11.619 5.7143ZM11.619 7.61906H9.71426C9.66422 7.61911 9.61466 7.60928 9.56842 7.59015C9.52219 7.57102 9.48017 7.54297 9.44479 7.50758C9.40941 7.4722 9.38135 7.43019 9.36222 7.38395C9.34309 7.33771 9.33326 7.28815 9.33331 7.23811C9.33326 7.18807 9.34309 7.13851 9.36222 7.09228C9.38135 7.04604 9.40941 7.00402 9.44479 6.96864C9.48017 6.93326 9.52219 6.9052 9.56842 6.88607C9.61466 6.86694 9.66422 6.85711 9.71426 6.85716H11.619C11.6691 6.85711 11.7186 6.86694 11.7649 6.88607C11.8111 6.9052 11.8531 6.93326 11.8885 6.96864C11.9239 7.00402 11.9519 7.04604 11.9711 7.09228C11.9902 7.13851 12 7.18807 12 7.23811C12 7.28815 11.9902 7.33771 11.9711 7.38395C11.9519 7.43019 11.9239 7.4722 11.8885 7.50758C11.8531 7.54297 11.8111 7.57102 11.7649 7.59015C11.7186 7.60928 11.6691 7.61911 11.619 7.61906ZM11.619 9.52383H5.52378C5.31321 9.52383 5.14282 9.35344 5.14282 9.14288C5.14282 8.93231 5.31321 8.76192 5.52378 8.76192H11.619C11.8296 8.76192 12 8.93231 12 9.14288C12 9.35344 11.8296 9.52383 11.619 9.52383Z" fill="#6F6571"/>
<path d="M16.9524 9.52383H16.1905C15.9799 9.52383 15.8095 9.35344 15.8095 9.14288C15.8095 8.93231 15.9799 8.76192 16.1905 8.76192H16.9524C17.1629 8.76192 17.3333 8.93231 17.3333 9.14288C17.3333 9.35344 17.1629 9.52383 16.9524 9.52383ZM16.9524 5.7143H16.1905C15.9799 5.7143 15.8095 5.54391 15.8095 5.33335C15.8095 5.12278 15.9799 4.95239 16.1905 4.95239H16.9524C17.1629 4.95239 17.3333 5.12278 17.3333 5.33335C17.3333 5.54391 17.1629 5.7143 16.9524 5.7143ZM16.9524 7.61906H16.1905C16.1404 7.61911 16.0909 7.60928 16.0446 7.59015C15.9984 7.57102 15.9564 7.54297 15.921 7.50758C15.8856 7.4722 15.8575 7.43019 15.8384 7.38395C15.8193 7.33771 15.8095 7.28815 15.8095 7.23811C15.8095 7.18807 15.8193 7.13851 15.8384 7.09228C15.8575 7.04604 15.8856 7.00402 15.921 6.96864C15.9564 6.93326 15.9984 6.9052 16.0446 6.88607C16.0909 6.86694 16.1404 6.85711 16.1905 6.85716H16.9524C17.0024 6.85711 17.052 6.86694 17.0982 6.88607C17.1444 6.9052 17.1865 6.93326 17.2218 6.96864C17.2572 7.00402 17.2853 7.04604 17.3044 7.09228C17.3235 7.13851 17.3334 7.18807 17.3333 7.23811C17.3334 7.28815 17.3235 7.33771 17.3044 7.38395C17.2853 7.43019 17.2572 7.4722 17.2218 7.50758C17.1865 7.54297 17.1444 7.57102 17.0982 7.59015C17.052 7.60928 17.0024 7.61911 16.9524 7.61906ZM16.9524 11.4286H16.1905C15.9799 11.4286 15.8095 11.2582 15.8095 11.0476C15.8095 10.8371 15.9799 10.6667 16.1905 10.6667H16.9524C17.1629 10.6667 17.3333 10.8371 17.3333 11.0476C17.3333 11.2582 17.1629 11.4286 16.9524 11.4286Z" fill="#FFD064"/>
<path d="M6.66666 14.8571H5.90476C5.69419 14.8571 5.5238 14.6867 5.5238 14.4762C5.5238 14.2656 5.69419 14.0952 5.90476 14.0952H6.66666C6.87723 14.0952 7.04762 14.2656 7.04762 14.4762C7.04762 14.6867 6.87723 14.8571 6.66666 14.8571ZM6.66666 18.6667H5.90476C5.69419 18.6667 5.5238 18.4963 5.5238 18.2857C5.5238 18.0751 5.69419 17.9047 5.90476 17.9047H6.66666C6.87723 17.9047 7.04762 18.0751 7.04762 18.2857C7.04762 18.4963 6.87723 18.6667 6.66666 18.6667ZM6.66666 16.7619H5.90476C5.69419 16.7619 5.5238 16.5915 5.5238 16.3809C5.5238 16.1704 5.69419 16 5.90476 16H6.66666C6.87723 16 7.04762 16.1704 7.04762 16.3809C7.04762 16.5915 6.87723 16.7619 6.66666 16.7619Z" fill="#B3E59F"/>
<path d="M16.9524 14.8571H8.57144C8.36088 14.8571 8.19049 14.6867 8.19049 14.4762C8.19049 14.2656 8.36088 14.0952 8.57144 14.0952H16.9524C17.163 14.0952 17.3334 14.2656 17.3334 14.4762C17.3334 14.6867 17.163 14.8571 16.9524 14.8571ZM13.9048 18.6667H8.57144C8.36088 18.6667 8.19049 18.4963 8.19049 18.2857C8.19049 18.0751 8.36088 17.9047 8.57144 17.9047H13.9048C14.1154 17.9047 14.2857 18.0751 14.2857 18.2857C14.2857 18.4963 14.1154 18.6667 13.9048 18.6667ZM16.9524 16.7619H8.57144C8.36088 16.7619 8.19049 16.5915 8.19049 16.3809C8.19049 16.1704 8.36088 16 8.57144 16H16.9524C17.163 16 17.3334 16.1704 17.3334 16.3809C17.3334 16.5915 17.163 16.7619 16.9524 16.7619Z" fill="#6F6571"/>
<path d="M16.0327 22.2531L19.0149 19.2709C19.0798 19.206 19.1299 19.1295 19.1673 19.0476H16.1905C16.1404 19.0476 16.0909 19.0575 16.0447 19.0766C15.9984 19.0957 15.9565 19.1238 15.9211 19.1592C15.8857 19.1945 15.8576 19.2365 15.8385 19.2828C15.8194 19.329 15.8095 19.3785 15.8095 19.4286V22.4054C15.8914 22.368 15.9678 22.3179 16.0327 22.2531Z" fill="white"/>
<path d="M7.04759 3.04763C6.4174 3.04763 5.90473 3.5603 5.90473 4.19048V4.95239C5.90469 5.00243 5.91451 5.05199 5.93364 5.09823C5.95277 5.14446 5.98083 5.18648 6.01621 5.22186C6.0516 5.25725 6.09361 5.2853 6.13985 5.30443C6.18609 5.32356 6.23565 5.33339 6.28569 5.33334C6.33573 5.33339 6.38528 5.32356 6.43152 5.30443C6.47776 5.2853 6.51977 5.25725 6.55516 5.22186C6.59054 5.18648 6.6186 5.14446 6.63773 5.09823C6.65686 5.05199 6.66668 5.00243 6.66664 4.95239V4.19048C6.66664 3.9803 6.8374 3.80953 7.04759 3.80953C7.25778 3.80953 7.42854 3.9803 7.42854 4.19048V5.7143C7.42854 6.34448 6.91587 6.85716 6.28569 6.85716C5.6555 6.85716 5.14283 6.34448 5.14283 5.7143V1.90477C5.14283 1.27458 5.6555 0.761906 6.28569 0.761906C6.91587 0.761906 7.42854 1.27458 7.42854 1.90477H8.19045C8.19045 0.854531 7.33592 0 6.28569 0C5.23545 0 4.38092 0.854531 4.38092 1.90477V5.7143C4.38092 6.76453 5.23545 7.61906 6.28569 7.61906C7.33592 7.61906 8.19045 6.76453 8.19045 5.7143V4.19048C8.19045 3.56025 7.67783 3.04763 7.04759 3.04763Z" fill="#B3E59F"/>
<path d="M7.13696 1.14288C7.31973 1.34552 7.42857 1.61102 7.42857 1.90479H8.19048C8.19081 1.64251 8.13651 1.38303 8.03106 1.14288H7.13696Z" fill="#95D6A4"/>
</g>
<defs>
<clipPath id="clip0_244_853">
<rect width="24" height="24" fill="white"/>
</clipPath>
</defs>
</svg>
