<svg width="35" height="34" viewBox="0 0 35 34" fill="none" xmlns="http://www.w3.org/2000/svg">
<g clip-path="url(#clip0_242_1434)">
<path d="M3.68433 25.6918H32.0656C33.3889 23.3382 34.1446 20.6227 34.1446 17.7304C34.1446 8.74486 26.8604 1.46069 17.875 1.46069C8.88945 1.46069 1.60529 8.74486 1.60529 17.7304C1.60535 20.6227 2.36106 23.3382 3.68433 25.6918Z" fill="#FF9100"/>
<path d="M11.8061 10.4574H23.9765C23.998 9.58049 24.1443 7.25946 25.0607 5.60607C25.1238 5.49254 25.162 5.36684 25.1726 5.23739C25.1832 5.10793 25.166 4.97771 25.1222 4.85542C24.7897 3.92825 23.7964 1.76075 21.6301 1.18262C21.5146 1.15181 21.4842 1.00253 21.5781 0.92875L21.9027 0.673683C22.0499 0.558004 21.9934 0.323058 21.8096 0.287664C20.2113 -0.020594 14.903 -0.758235 13.2542 2.63227C13.1558 2.83461 12.9703 2.9803 12.7525 3.03668C12.2727 3.16086 11.4097 3.53513 10.8473 4.65666C10.7926 4.76519 10.7601 4.88349 10.7515 5.0047C10.7429 5.12592 10.7585 5.24762 10.7973 5.36276C11.0707 6.16834 11.7367 8.33145 11.8061 10.4574Z" fill="#56415E"/>
<path d="M17.2518 5.09792C15.3079 2.13561 18.7081 0.000976562 18.7081 0.000976562C16.646 0.0276719 14.2639 0.555734 13.2542 2.63206C13.1558 2.8344 12.9703 2.98009 12.7525 3.03647C12.2727 3.16065 11.4097 3.53492 10.8473 4.65645C10.7926 4.76498 10.7601 4.88328 10.7515 5.00449C10.7429 5.1257 10.7585 5.24741 10.7973 5.36255C11.0707 6.16813 11.7367 8.33124 11.8061 10.4572H14.639C16.432 9.0048 18.4068 6.85822 17.2518 5.09792Z" fill="#45304C"/>
<path d="M17.8577 25.4205C18.9271 25.4207 19.9721 25.1002 20.8576 24.5004C21.5226 23.5537 22.0212 22.392 21.9433 21.0799C21.8687 19.8243 21.3059 19.0387 21.2851 19.0103C21.1677 18.8296 21.0663 18.606 20.9828 18.3455H20.7785C20.615 18.4996 20.4442 18.6459 20.2669 18.784C19.5794 19.3178 18.7312 19.6078 17.8575 19.6078C16.9839 19.6078 16.1356 19.3178 15.4482 18.784C15.2709 18.6459 15.1002 18.4996 14.9367 18.3455H14.7602C14.7649 18.35 14.7692 18.3548 14.7739 18.3593C14.6894 18.6283 14.586 18.858 14.4661 19.0429C14.4249 19.1 13.8798 19.8801 13.8065 21.1146C13.7292 22.4169 14.2197 23.571 14.8774 24.5138C15.7588 25.1051 16.7963 25.4207 17.8577 25.4205Z" fill="#FFD9A1"/>
<path d="M17.8577 19.6078C16.984 19.6078 16.1357 19.3178 15.4484 18.784C15.2711 18.6459 15.1003 18.4996 14.9368 18.3455H14.7603C14.765 18.35 14.7694 18.3548 14.774 18.3593C14.6895 18.6283 14.5861 18.858 14.4662 19.0429C14.425 19.1001 13.8799 19.8801 13.8066 21.1146C13.7293 22.4169 14.2199 23.571 14.8775 24.5138C18.03 23.3695 17.8577 19.6078 17.8577 19.6078Z" fill="#F9C98A"/>
<path d="M14.7117 24.2652C15.1442 24.9416 15.6728 25.5199 16.1657 25.9787C16.222 26.0313 16.2669 26.0949 16.2976 26.1655C16.3284 26.2361 16.3443 26.3123 16.3443 26.3893V33.9277C16.8484 33.9748 17.3587 34 17.875 34C18.3913 34 18.9016 33.9748 19.4057 33.9278V26.4091C19.4113 26.3818 19.3743 26.1396 19.5842 25.9441C20.0729 25.4893 20.5966 24.9168 21.027 24.2478C20.1085 24.9235 18.998 25.2879 17.8577 25.2875C16.7273 25.2879 15.6259 24.93 14.7117 24.2652Z" fill="#FFC839"/>
<path d="M16.1656 25.9788C16.2219 26.0314 16.2668 26.0949 16.2976 26.1656C16.3283 26.2362 16.3442 26.3124 16.3443 26.3894V26.7619C16.8356 26.907 17.3453 26.9807 17.8576 26.981C18.3821 26.9806 18.9036 26.9032 19.4056 26.7513V26.4091C19.4112 26.3818 19.3742 26.1396 19.5842 25.9441C20.0729 25.4893 20.5965 24.9168 21.027 24.2478C20.1085 24.9236 18.9979 25.2879 17.8576 25.2876C16.7272 25.288 15.6258 24.93 14.7116 24.2652C15.1442 24.9417 15.6728 25.52 16.1656 25.9788Z" fill="#FFDD40"/>
<path d="M32.0656 25.6917C31.942 25.326 31.8084 24.99 31.6635 24.6944C30.6595 22.6465 27.0371 22.5694 25.864 21.3962C25.864 21.3962 25.5339 26.0256 19.306 26.3893V33.9365C24.7927 33.4583 29.4986 30.2574 32.0656 25.6917ZM11.3835 24.4129C11.3342 24.6478 11.3249 24.9105 11.3569 25.201C10.8069 25.2789 8.23859 25.7724 8.23859 28.1811V30.8385C10.5752 32.5591 13.3884 33.6702 16.4439 33.9365V26.3893C13.8985 26.2407 12.3386 25.3794 11.3835 24.4129Z" fill="#945230"/>
<path d="M9.88601 21.3962C8.71281 22.5694 5.09048 22.6464 4.08648 24.6944C3.94158 24.9899 3.80797 25.3259 3.68433 25.6917C4.84205 27.7508 6.43494 29.5322 8.33821 30.9115V28.181C8.33821 25.5576 11.4681 25.2875 11.4681 25.2875C11.4258 24.9836 11.4295 24.7221 11.4686 24.4968C10.0067 23.0803 9.88601 21.3962 9.88601 21.3962Z" fill="#753616"/>
<path d="M24.4489 10.1027C24.1764 9.85298 23.5673 9.97955 23.3326 10.1324C23.384 10.4526 23.3869 10.7801 23.3425 11.1035L23.0656 13.1204C23.0656 13.2829 23.0605 13.4424 23.051 13.5992C23.7263 13.8028 24.1281 13.1966 24.1846 12.7806C24.2089 12.6015 24.2488 12.4248 24.3039 12.2527C24.4835 11.6918 25.1315 10.7283 24.4489 10.1027Z" fill="#FFD9A1"/>
<path d="M11.2665 10.1027C11.5389 9.85298 12.1481 9.97955 12.3828 10.1324C12.3316 10.4538 12.3283 10.7811 12.3729 11.1035L12.6498 13.1204C12.6498 13.2829 12.6549 13.4424 12.6643 13.5992C11.989 13.8028 11.5872 13.1966 11.5307 12.7806C11.5064 12.6015 11.4665 12.4248 11.4114 12.2527C11.2317 11.6918 10.5838 10.7283 11.2665 10.1027Z" fill="#F9C98A"/>
<path d="M25.5045 19.5682C24.6433 18.6511 23.0619 17.9137 21.8407 17.1907C21.8407 17.1907 21.8217 17.2016 21.7818 17.2232C21.5096 17.6088 21.202 17.9681 20.8631 18.2966C20.9353 18.5387 21.0439 18.822 21.2016 19.0647C21.2016 19.0647 23.4761 22.1858 19.5164 25.8714C19.45 25.9332 19.397 26.008 19.3608 26.0912C19.3246 26.1744 19.3059 26.2641 19.3059 26.3549C19.3059 26.7904 19.7194 27.1083 20.1396 26.9943C21.3179 26.6747 23.5099 25.9489 25.156 24.6378C26.7309 23.3833 26.8827 21.036 25.5045 19.5682ZM14.2225 23.094C13.9178 23.0468 12.5692 22.8867 11.8233 23.5987C11.437 23.9675 11.2803 24.5063 11.357 25.2011L11.337 25.2041C12.8524 26.1843 14.6022 26.7554 15.6103 27.0289C16.0306 27.1429 16.444 26.825 16.444 26.3895C16.444 26.2987 16.4253 26.209 16.3891 26.1258C16.3529 26.0426 16.3 25.9678 16.2336 25.906C15.1642 24.9107 14.55 23.9567 14.2225 23.094Z" fill="#B26847"/>
<path d="M14.5484 19.0992C14.7063 18.8561 14.815 18.5723 14.8872 18.33C14.5419 17.9998 14.2285 17.6377 13.9512 17.2486C13.9233 17.2334 13.9093 17.2253 13.9093 17.2253C12.6882 17.9483 11.1067 18.6857 10.2455 19.6028C8.86735 21.0706 9.01915 23.4179 10.594 24.6723C10.8722 24.8939 11.1663 25.0984 11.4682 25.2875C11.0953 22.6095 14.2646 23.2018 14.2646 23.2018L14.2648 23.2016C13.2998 20.8137 14.5484 19.0992 14.5484 19.0992Z" fill="#945230"/>
<path d="M13.6794 31.0747C13.3677 31.0747 13.1128 30.8198 13.1128 30.5081V25.8542C13.1128 25.5425 13.3677 25.2876 13.6794 25.2876C13.991 25.2876 14.2459 25.5425 14.2459 25.8542V30.5081C14.2459 30.8198 13.9909 31.0747 13.6794 31.0747ZM22.1053 31.0747C21.7937 31.0747 21.5388 30.8198 21.5388 30.5081V25.8542C21.5388 25.5425 21.7937 25.2876 22.1053 25.2876C22.417 25.2876 22.6719 25.5425 22.6719 25.8542V30.5081C22.6719 30.8198 22.4169 31.0747 22.1053 31.0747Z" fill="#DEEEFF"/>
<path d="M23.2323 9.50946C23.17 9.34683 23.0914 9.18214 22.9924 9.02682C22.8247 8.76378 22.751 8.45253 22.7735 8.14228C22.8381 7.24992 22.8035 5.50456 21.6319 4.97743C20.6367 4.52959 19.4158 4.7889 18.6373 5.04782C18.1503 5.20942 17.625 5.21553 17.1344 5.06528C16.2473 5.74608 16.2265 7.27894 16.2864 8.09514C16.3099 8.40756 16.2319 8.71922 16.064 8.98372C15.9668 9.13619 15.8891 9.29755 15.8269 9.45726C15.6252 9.97536 15.5664 10.5373 15.642 11.0875L15.9226 13.1316C15.9226 16.0702 17.4913 18.0676 18.8256 19.1038C19.0225 19.2567 19.2333 19.3882 19.4532 19.5005C19.7431 19.3722 20.0164 19.209 20.2669 19.0147C21.5838 17.9921 23.1319 16.0208 23.1319 13.1206L23.4088 11.1037C23.4828 10.5659 23.4268 10.0168 23.2323 9.50946Z" fill="#FCE6CA"/>
<path d="M18.8351 19.0147C17.5182 17.9921 15.9701 16.0208 15.9701 13.1205L15.6931 11.1032C15.6185 10.5602 15.6766 10.0056 15.8756 9.49429C15.937 9.33664 16.0137 9.1774 16.1097 9.02692C16.2754 8.76587 16.3524 8.4583 16.3293 8.14996C16.2682 7.31882 16.2919 5.73483 17.2519 5.09826C17.1934 5.08358 17.1354 5.06674 17.0781 5.04779C16.2996 4.78887 15.0787 4.52962 14.0835 4.9774C12.9086 5.50599 12.8771 7.25985 12.9425 8.14989C12.9658 8.45824 12.8888 8.76585 12.7229 9.02685C12.627 9.17733 12.5503 9.33657 12.4889 9.49422C12.2899 10.0055 12.2319 10.5602 12.3064 11.1032L12.5834 13.1205C12.5834 16.0207 14.1315 17.992 15.4484 19.0146C16.1358 19.5484 16.984 19.8383 17.8577 19.8383C18.4436 19.8382 19.0221 19.7074 19.551 19.4553C19.2972 19.3347 19.0571 19.187 18.8351 19.0147Z" fill="#FFD9A1"/>
<path d="M34.1447 17.7302C34.1447 12.8631 32.0068 8.49591 28.6197 5.5144C27.1349 6.6807 25.6647 8.4151 26.4254 10.5208C27.7747 14.2557 21.6673 16.611 28.4849 19.3181C31.0092 20.3205 32.5537 21.3629 33.4992 22.2787C33.919 20.8352 34.1447 19.3092 34.1447 17.7302ZM1.60535 17.7302C1.60535 12.8631 3.74323 8.49591 7.13028 5.5144C8.61506 6.6807 10.0852 8.4151 9.32454 10.5208C7.97523 14.2557 14.0827 16.611 7.26502 19.3181C4.74072 20.3205 3.19624 21.3629 2.25082 22.2787C1.83106 20.8352 1.60535 19.3092 1.60535 17.7302Z" fill="#FFB332"/>
<path d="M29.9349 28.6488C29.613 27.318 28.7921 26.5494 28.1282 26.1297C27.7131 25.8673 27.1718 26.1626 27.1718 26.6538V31.0823C28.1815 30.3777 29.1084 29.5613 29.9349 28.6488Z" fill="#753616"/>
</g>
<defs>
<clipPath id="clip0_242_1434">
<rect width="34" height="34" fill="white" transform="translate(0.875)"/>
</clipPath>
</defs>
</svg>
